<svg xmlns="http://www.w3.org/2000/svg" version="1.1" xmlns:xlink="http://www.w3.org/1999/xlink" xmlns:svgjs="http://svgjs.dev/svgjs" viewBox="0 0 800 800" opacity="1" width="800" height="800"><g stroke-width="0.5" stroke="#1f2937" fill="none"><rect width="88.88888888888889" height="66.66666666666667" x="0" y="0"></rect><rect width="88.88888888888889" height="66.66666666666667" x="88.88888888888889" y="0"></rect><rect width="88.88888888888889" height="66.66666666666667" x="177.77777777777777" y="0"></rect><rect width="88.88888888888889" height="66.66666666666667" x="266.66666666666663" y="0"></rect><rect width="88.88888888888889" height="66.66666666666667" x="355.55555555555554" y="0"></rect><rect width="88.88888888888889" height="66.66666666666667" x="444.44444444444446" y="0"></rect><rect width="88.88888888888889" height="66.66666666666667" x="533.3333333333334" y="0"></rect><rect width="88.88888888888889" height="66.66666666666667" x="622.2222222222223" y="0"></rect><rect width="88.88888888888889" height="66.66666666666667" x="711.1111111111112" y="0"></rect><rect width="88.88888888888889" height="66.66666666666667" x="800.0000000000001" y="0"></rect><rect width="88.88888888888889" height="66.66666666666667" x="0" y="66.66666666666667"></rect><rect width="88.88888888888889" height="66.66666666666667" x="88.88888888888889" y="66.66666666666667"></rect><rect width="88.88888888888889" height="66.66666666666667" x="177.77777777777777" y="66.66666666666667"></rect><rect width="88.88888888888889" height="66.66666666666667" x="266.66666666666663" y="66.66666666666667"></rect><rect width="88.88888888888889" height="66.66666666666667" x="355.55555555555554" y="66.66666666666667"></rect><rect width="88.88888888888889" height="66.66666666666667" x="444.44444444444446" y="66.66666666666667"></rect><rect width="88.88888888888889" height="66.66666666666667" x="533.3333333333334" y="66.66666666666667"></rect><rect width="88.88888888888889" height="66.66666666666667" x="622.2222222222223" y="66.66666666666667"></rect><rect width="88.88888888888889" height="66.66666666666667" x="711.1111111111112" y="66.66666666666667"></rect><rect width="88.88888888888889" height="66.66666666666667" x="800.0000000000001" y="66.66666666666667"></rect><rect width="88.88888888888889" height="66.66666666666667" x="0" y="133.33333333333334"></rect><rect width="88.88888888888889" height="66.66666666666667" x="88.88888888888889" y="133.33333333333334"></rect><rect width="88.88888888888889" height="66.66666666666667" x="177.77777777777777" y="133.33333333333334"></rect><rect width="88.88888888888889" height="66.66666666666667" x="266.66666666666663" y="133.33333333333334"></rect><rect width="88.88888888888889" height="66.66666666666667" x="355.55555555555554" y="133.33333333333334"></rect><rect width="88.88888888888889" height="66.66666666666667" x="444.44444444444446" y="133.33333333333334"></rect><rect width="88.88888888888889" height="66.66666666666667" x="533.3333333333334" y="133.33333333333334"></rect><rect width="88.88888888888889" height="66.66666666666667" x="622.2222222222223" y="133.33333333333334"></rect><rect width="88.88888888888889" height="66.66666666666667" x="711.1111111111112" y="133.33333333333334"></rect><rect width="88.88888888888889" height="66.66666666666667" x="800.0000000000001" y="133.33333333333334"></rect><rect width="88.88888888888889" height="66.66666666666667" x="0" y="200"></rect><rect width="88.88888888888889" height="66.66666666666667" x="88.88888888888889" y="200"></rect><rect width="88.88888888888889" height="66.66666666666667" x="177.77777777777777" y="200"></rect><rect width="88.88888888888889" height="66.66666666666667" x="266.66666666666663" y="200"></rect><rect width="88.88888888888889" height="66.66666666666667" x="355.55555555555554" y="200"></rect><rect width="88.88888888888889" height="66.66666666666667" x="444.44444444444446" y="200"></rect><rect width="88.88888888888889" height="66.66666666666667" x="533.3333333333334" y="200"></rect><rect width="88.88888888888889" height="66.66666666666667" x="622.2222222222223" y="200"></rect><rect width="88.88888888888889" height="66.66666666666667" x="711.1111111111112" y="200"></rect><rect width="88.88888888888889" height="66.66666666666667" x="800.0000000000001" y="200"></rect><rect width="88.88888888888889" height="66.66666666666667" x="0" y="266.6666666666667"></rect><rect width="88.88888888888889" height="66.66666666666667" x="88.88888888888889" y="266.6666666666667"></rect><rect width="88.88888888888889" height="66.66666666666667" x="177.77777777777777" y="266.6666666666667"></rect><rect width="88.88888888888889" height="66.66666666666667" x="266.66666666666663" y="266.6666666666667"></rect><rect width="88.88888888888889" height="66.66666666666667" x="355.55555555555554" y="266.6666666666667"></rect><rect width="88.88888888888889" height="66.66666666666667" x="444.44444444444446" y="266.6666666666667"></rect><rect width="88.88888888888889" height="66.66666666666667" x="533.3333333333334" y="266.6666666666667"></rect><rect width="88.88888888888889" height="66.66666666666667" x="622.2222222222223" y="266.6666666666667"></rect><rect width="88.88888888888889" height="66.66666666666667" x="711.1111111111112" y="266.6666666666667"></rect><rect width="88.88888888888889" height="66.66666666666667" x="800.0000000000001" y="266.6666666666667"></rect><rect width="88.88888888888889" height="66.66666666666667" x="0" y="333.33333333333337"></rect><rect width="88.88888888888889" height="66.66666666666667" x="88.88888888888889" y="333.33333333333337"></rect><rect width="88.88888888888889" height="66.66666666666667" x="177.77777777777777" y="333.33333333333337"></rect><rect width="88.88888888888889" height="66.66666666666667" x="266.66666666666663" y="333.33333333333337"></rect><rect width="88.88888888888889" height="66.66666666666667" x="355.55555555555554" y="333.33333333333337"></rect><rect width="88.88888888888889" height="66.66666666666667" x="444.44444444444446" y="333.33333333333337"></rect><rect width="88.88888888888889" height="66.66666666666667" x="533.3333333333334" y="333.33333333333337"></rect><rect width="88.88888888888889" height="66.66666666666667" x="622.2222222222223" y="333.33333333333337"></rect><rect width="88.88888888888889" height="66.66666666666667" x="711.1111111111112" y="333.33333333333337"></rect><rect width="88.88888888888889" height="66.66666666666667" x="800.0000000000001" y="333.33333333333337"></rect><rect width="88.88888888888889" height="66.66666666666667" x="0" y="400.00000000000006"></rect><rect width="88.88888888888889" height="66.66666666666667" x="88.88888888888889" y="400.00000000000006"></rect><rect width="88.88888888888889" height="66.66666666666667" x="177.77777777777777" y="400.00000000000006"></rect><rect width="88.88888888888889" height="66.66666666666667" x="266.66666666666663" y="400.00000000000006"></rect><rect width="88.88888888888889" height="66.66666666666667" x="355.55555555555554" y="400.00000000000006"></rect><rect width="88.88888888888889" height="66.66666666666667" x="444.44444444444446" y="400.00000000000006"></rect><rect width="88.88888888888889" height="66.66666666666667" x="533.3333333333334" y="400.00000000000006"></rect><rect width="88.88888888888889" height="66.66666666666667" x="622.2222222222223" y="400.00000000000006"></rect><rect width="88.88888888888889" height="66.66666666666667" x="711.1111111111112" y="400.00000000000006"></rect><rect width="88.88888888888889" height="66.66666666666667" x="800.0000000000001" y="400.00000000000006"></rect><rect width="88.88888888888889" height="66.66666666666667" x="0" y="466.66666666666674"></rect><rect width="88.88888888888889" height="66.66666666666667" x="88.88888888888889" y="466.66666666666674"></rect><rect width="88.88888888888889" height="66.66666666666667" x="177.77777777777777" y="466.66666666666674"></rect><rect width="88.88888888888889" height="66.66666666666667" x="266.66666666666663" y="466.66666666666674"></rect><rect width="88.88888888888889" height="66.66666666666667" x="355.55555555555554" y="466.66666666666674"></rect><rect width="88.88888888888889" height="66.66666666666667" x="444.44444444444446" y="466.66666666666674"></rect><rect width="88.88888888888889" height="66.66666666666667" x="533.3333333333334" y="466.66666666666674"></rect><rect width="88.88888888888889" height="66.66666666666667" x="622.2222222222223" y="466.66666666666674"></rect><rect width="88.88888888888889" height="66.66666666666667" x="711.1111111111112" y="466.66666666666674"></rect><rect width="88.88888888888889" height="66.66666666666667" x="800.0000000000001" y="466.66666666666674"></rect><rect width="88.88888888888889" height="66.66666666666667" x="0" y="533.3333333333334"></rect><rect width="88.88888888888889" height="66.66666666666667" x="88.88888888888889" y="533.3333333333334"></rect><rect width="88.88888888888889" height="66.66666666666667" x="177.77777777777777" y="533.3333333333334"></rect><rect width="88.88888888888889" height="66.66666666666667" x="266.66666666666663" y="533.3333333333334"></rect><rect width="88.88888888888889" height="66.66666666666667" x="355.55555555555554" y="533.3333333333334"></rect><rect width="88.88888888888889" height="66.66666666666667" x="444.44444444444446" y="533.3333333333334"></rect><rect width="88.88888888888889" height="66.66666666666667" x="533.3333333333334" y="533.3333333333334"></rect><rect width="88.88888888888889" height="66.66666666666667" x="622.2222222222223" y="533.3333333333334"></rect><rect width="88.88888888888889" height="66.66666666666667" x="711.1111111111112" y="533.3333333333334"></rect><rect width="88.88888888888889" height="66.66666666666667" x="800.0000000000001" y="533.3333333333334"></rect><rect width="88.88888888888889" height="66.66666666666667" x="0" y="600"></rect><rect width="88.88888888888889" height="66.66666666666667" x="88.88888888888889" y="600"></rect><rect width="88.88888888888889" height="66.66666666666667" x="177.77777777777777" y="600"></rect><rect width="88.88888888888889" height="66.66666666666667" x="266.66666666666663" y="600"></rect><rect width="88.88888888888889" height="66.66666666666667" x="355.55555555555554" y="600"></rect><rect width="88.88888888888889" height="66.66666666666667" x="444.44444444444446" y="600"></rect><rect width="88.88888888888889" height="66.66666666666667" x="533.3333333333334" y="600"></rect><rect width="88.88888888888889" height="66.66666666666667" x="622.2222222222223" y="600"></rect><rect width="88.88888888888889" height="66.66666666666667" x="711.1111111111112" y="600"></rect><rect width="88.88888888888889" height="66.66666666666667" x="800.0000000000001" y="600"></rect><rect width="88.88888888888889" height="66.66666666666667" x="0" y="666.6666666666666"></rect><rect width="88.88888888888889" height="66.66666666666667" x="88.88888888888889" y="666.6666666666666"></rect><rect width="88.88888888888889" height="66.66666666666667" x="177.77777777777777" y="666.6666666666666"></rect><rect width="88.88888888888889" height="66.66666666666667" x="266.66666666666663" y="666.6666666666666"></rect><rect width="88.88888888888889" height="66.66666666666667" x="355.55555555555554" y="666.6666666666666"></rect><rect width="88.88888888888889" height="66.66666666666667" x="444.44444444444446" y="666.6666666666666"></rect><rect width="88.88888888888889" height="66.66666666666667" x="533.3333333333334" y="666.6666666666666"></rect><rect width="88.88888888888889" height="66.66666666666667" x="622.2222222222223" y="666.6666666666666"></rect><rect width="88.88888888888889" height="66.66666666666667" x="711.1111111111112" y="666.6666666666666"></rect><rect width="88.88888888888889" height="66.66666666666667" x="800.0000000000001" y="666.6666666666666"></rect><rect width="88.88888888888889" height="66.66666666666667" x="0" y="733.3333333333333"></rect><rect width="88.88888888888889" height="66.66666666666667" x="88.88888888888889" y="733.3333333333333"></rect><rect width="88.88888888888889" height="66.66666666666667" x="177.77777777777777" y="733.3333333333333"></rect><rect width="88.88888888888889" height="66.66666666666667" x="266.66666666666663" y="733.3333333333333"></rect><rect width="88.88888888888889" height="66.66666666666667" x="355.55555555555554" y="733.3333333333333"></rect><rect width="88.88888888888889" height="66.66666666666667" x="444.44444444444446" y="733.3333333333333"></rect><rect width="88.88888888888889" height="66.66666666666667" x="533.3333333333334" y="733.3333333333333"></rect><rect width="88.88888888888889" height="66.66666666666667" x="622.2222222222223" y="733.3333333333333"></rect><rect width="88.88888888888889" height="66.66666666666667" x="711.1111111111112" y="733.3333333333333"></rect><rect width="88.88888888888889" height="66.66666666666667" x="800.0000000000001" y="733.3333333333333"></rect><rect width="88.88888888888889" height="66.66666666666667" x="0" y="799.9999999999999"></rect><rect width="88.88888888888889" height="66.66666666666667" x="88.88888888888889" y="799.9999999999999"></rect><rect width="88.88888888888889" height="66.66666666666667" x="177.77777777777777" y="799.9999999999999"></rect><rect width="88.88888888888889" height="66.66666666666667" x="266.66666666666663" y="799.9999999999999"></rect><rect width="88.88888888888889" height="66.66666666666667" x="355.55555555555554" y="799.9999999999999"></rect><rect width="88.88888888888889" height="66.66666666666667" x="444.44444444444446" y="799.9999999999999"></rect><rect width="88.88888888888889" height="66.66666666666667" x="533.3333333333334" y="799.9999999999999"></rect><rect width="88.88888888888889" height="66.66666666666667" x="622.2222222222223" y="799.9999999999999"></rect><rect width="88.88888888888889" height="66.66666666666667" x="711.1111111111112" y="799.9999999999999"></rect><rect width="88.88888888888889" height="66.66666666666667" x="800.0000000000001" y="799.9999999999999"></rect></g></svg>